<svg viewBox="0 0 40 40" xmlns="http://www.w3.org/2000/svg">
<rect width="40" height="40" rx="9" fill="#E3F5F2"/>
<ellipse cx="20" cy="29.6" rx="15" ry="1.5" fill="#EDF3F1"/>
<path d="M6 26.6
L7.5 26.6
A4.5 4.5 0 0 1 16.5 26.6
L23.5 26.6
A4.5 4.5 0 0 1 32.5 26.6
L34 26.6
C36.3 24.3 35.3 19.7 31.5 17.5
C29.3 15 26.3 13 23 13
L16 13
C12.7 13 9.7 15 7.5 17.5
C4.7 19.7 3.7 24.3 6 26.6
Z" fill="#009688"/>
<circle cx="32.6" cy="20.6" r="1" fill="#F6F9F8" opacity="0.85"/>
<path d="M11.4 18.6 L11 18.2 C11 15.6 12.6 14.3 15 14.3 L24 14.3 C26.4 14.3 28 15.6 28 18.2 L27.6 18.6 Q27.6 18.9 27.2 18.9 L11.8 18.9 Q11.4 18.9 11.4 18.6 Z" fill="#F6F9F8"/>
<line x1="19.5" y1="14.3" x2="19.5" y2="18.9" stroke="#009688" stroke-width="0.9"/>
<circle cx="12" cy="26.6" r="4" fill="#16302C"/>
<circle cx="12" cy="26.6" r="1.5" fill="#F6F9F8"/>
<circle cx="28" cy="26.6" r="4" fill="#16302C"/>
<circle cx="28" cy="26.6" r="1.5" fill="#F6F9F8"/>
<circle cx="30" cy="10.5" r="3.3" fill="#00695E"/>
<path d="M28.3 10.5l1.1 1.1 2.1-2.4" fill="none" stroke="#FFFFFF" stroke-width="0.9" stroke-linecap="round" stroke-linejoin="round"/>
</svg>
